General
Complete name                            : The White Countess [2005] DVDRip XviD - CODY.avi
Format                                   : AVI
Format/Info                              : Audio Video Interleave
Format profile                           : OpenDML
Format settings                          : rec
File size                                : 1.40 GiB
Duration                                 : 2h 10mn
Overall bit rate                         : 1 537 Kbps
Writing application                      : AVI-Mux GUI 1.17.8, Aug 30 2008  12:36:58

Video
ID                                       : 0
Format                                   : MPEG-4 Visual
Format profile                           : Advanced Simple@L5
Format settings, BVOP                    : 4
Format settings, QPel                    : No
Format settings, GMC                     : No warppoints
Format settings, Matrix                  : Default (H.263)
Codec ID                                 : XVID
Codec ID/Hint                            : XviD
Duration                                 : 2h 10mn
Bit rate                                 : 1 400 Kbps
Width                                    : 720 pixels
Height                                   : 432 pixels
Display aspect ratio                     : 1.660
Frame rate                               : 25.000 fps
Color space                              : YUV
Chroma subsampling                       : 4:2:0
Bit depth                                : 8 bits
Scan type                                : Progressive
Compression mode                         : Lossy
Bits/(Pixel*Frame)                       : 0.180***
Stream size                              : 1.27 GiB (91%)
Writing library                          : XviD 65

Audio
ID                                       : 1
Format                                   : MPEG Audio
Format version                           : Version 1
Format profile                           : Layer 3
Codec ID                                 : 55
Codec ID/Hint                            : MP3
Duration                                 : 2h 10mn
Bit rate mode                            : Constant
Bit rate                                 : 128 Kbps
Channel(s)                               : 2 channels
Sampling rate                            : 48.0 KHz
Compression mode                         : Lossy
Stream size                              : 119 MiB (8%)
Alignment                                : Aligned on interleaves
Interleave, duration                     : 24 ms (0.60 video frame)
Interleave, preload duration             : 4008 ms
Writing library                          : LAME3.99r
Encoding settings                        : -m s -V 4 -q 2 -lowpass 17 -b 128

Audio language                           : English, French [short parts] 
                                           Mandarin [few parts]

IMDB link:                                 http://www.imdb.com/title/tt0384686/

Subtitles included                       : Romanian

Please seed at least 1,5:1 . This way this torrent has a chance to survive !

Thanks . Enjoy !!	
_______________________________

*** From the source I've got, this the best result at this size	